<?xml version="1.0" encoding="UTF-8"?>
<svg width="180px" height="58px" viewBox="0 0 180 58" version="1.1" xmlns="http://www.w3.org/2000/svg" xmlns:xlink="http://www.w3.org/1999/xlink">
    <!-- Generator: Sketch 51.1 (57501) - http://www.bohemiancoding.com/sketch -->
    <title>franke_logo@2x</title>
    <desc>Created with Sketch.</desc>
    <defs></defs>
    <g id="iQCircle" stroke="none" stroke-width="1" fill="none" fill-rule="evenodd">
        <g id="Landing-Page-update" transform="translate(-300.000000, -63.000000)" fill-rule="nonzero">
            <g id="franke_logo" transform="translate(300.000000, 63.000000)">
                <rect id="Rectangle-path" fill="#DC281E" x="0" y="0" width="60" height="58"></rect>
                <rect id="Rectangle-path" fill="#DC281E" x="62" y="0" width="58" height="58"></rect>
                <rect id="Rectangle-path" fill="#DC281E" x="121" y="0" width="59" height="58"></rect>
                <polygon id="Shape" fill="#FFFFFF" points="4 17 26 17 26 24.3610718 21.0072444 24.3610718 21.0072444 22.0361973 15.7355809 22.0361973 15.7355809 26.0027051 20.1674561 26.0027051 20.1674561 31.1532913 15.7355809 31.1532913 15.7355809 35.9638027 18.4296461 35.9638027 18.4296461 41 4 41 4 36.0781914 6.24352187 36.0781914 6.24352187 22.4906608 4 22.4906608"></polygon>
                <path d="M55.4595093,36.0194512 L51.8927486,29.0571944 C51.8927486,29.0571944 56.000977,26.784877 55.7459835,23.7922195 C55.2297004,17.6214092 46.7582501,17 46.7582501,17 L29,17 L29,22.4350122 L31.7136344,22.4350122 L31.7136344,36.0194512 L29.4029527,36.0194512 L29.4029527,41 L43.8211029,41 L43.8211029,35.9638027 L41.456904,35.9638027 L41.456904,31.0358109 L44.1075771,31.0358109 L48.426726,41 L58,41 L58,36.0194512 L55.4595093,36.0194512 Z M41.6875,27.6628664 L41.6875,22.3352029 C41.6875,22.3352029 46.21875,22.1667997 46.21875,25.0265915 C46.21875,27.8802596 41.6875,27.6628664 41.6875,27.6628664 L41.6875,27.6628664 Z" id="Shape" fill="#FFFFFF"></path>
                <path d="M87.325678,36.0225428 L83.0791595,22.0361973 L85.8709993,22.0361973 L85.8709993,17 L67.2587344,17 L67.2587344,22.0980291 L69.8155387,22.0980291 L65.0925971,35.9576195 L64,35.9638027 L64,41 L73.8333741,41 L73.8333741,36.0225428 L71.3877352,36.0225428 L71.9054483,33.3575937 L78.3085756,33.3575937 L78.8389934,36.0225428 L76.5108722,36.0225428 L76.5108722,41 L90,41 L90,36.0225428 L87.325678,36.0225428 Z M72.9655172,29.4444444 L75.6838756,22.3333333 L78.3448276,29.4444444 L72.9655172,29.4444444 Z" id="Shape" fill="#FFFFFF"></path>
                <polygon id="Shape" fill="#FFFFFF" points="92.0571967 17 101.780628 17 111.434153 28.7696767 111.434153 22.0980291 109.225727 22.0980291 109.225727 17 119 17 119 21.9836403 117.249147 21.9836403 117.249147 41 109.165352 41 100.083794 28.377045 100.083794 35.9638027 102.298576 35.9638027 102.298576 41 92 41 92 36.0225428 93.9510415 36.0225428 93.9701071 21.9960067 92.0571967 22.0114646"></polygon>
                <polygon id="Shape" fill="#FFFFFF" points="122.05749 17 136.564037 17 136.564037 21.5910086 134.219738 21.5910086 134.219738 27.468118 140.192271 21.6095582 138.438837 21.5910086 138.438837 17 150.134781 17 150.134781 21.5291769 148.381348 21.5291769 141.770042 28.377045 149.313957 35.5680794 152 35.5680794 152 41 138.314277 41 138.314277 35.9638027 140.658576 35.9638027 134.456084 29.622955 134.456084 35.9638027 136.506547 35.9638027 136.506547 41 122 41 122 35.9638027 124.80741 35.9638027 124.80741 21.9836403 122.05749 22.0114646"></polygon>
                <polygon id="Shape" fill="#FFFFFF" points="154 17 176 17 176 24.3023316 170.568014 24.3023316 170.568014 21.5291769 165.695429 21.5291769 165.695429 26.5128172 169.785466 26.5128172 169.785466 31.0358109 165.643463 31.0358109 165.643463 35.6268195 170.626094 35.6268195 170.626094 32.7949246 176 32.7949246 176 41 154 41 154 35.5680794 156.741976 35.5680794 156.741976 21.5291769 154 21.5291769"></polygon>
            </g>
        </g>
    </g>
</svg>